<mxfile host="app.diagrams.net" agent="Mozilla/5.0 (Macintosh; Intel Mac OS X 10_15_7) AppleWebKit/537.36 (KHTML, like Gecko) Chrome/131.0.0.0 Safari/537.36" version="26.1.0">
  <diagram id="7gcUSTIZ7YSJ5vT40chW" name="Page-1">
    <mxGraphModel dx="1574" dy="1711" grid="0" gridSize="17" guides="1" tooltips="1" connect="1" arrows="1" fold="1" page="1" pageScale="1" pageWidth="1169" pageHeight="827" background="light-dark(#FFFFFF,#9999FF)" math="0" shadow="0">
      <root>
        <mxCell id="0" />
        <mxCell id="1" parent="0" />
        <mxCell id="J6c1UXvjGDzlx57pnp78-21" value="" style="verticalLabelPosition=bottom;verticalAlign=top;html=1;shape=mxgraph.basic.rect;fillColor2=none;strokeWidth=1;size=20;indent=5;fillColor=#f5f5f5;strokeColor=#666666;fontColor=#333333;" vertex="1" parent="1">
          <mxGeometry x="633.42" y="138" width="414" height="401" as="geometry" />
        </mxCell>
        <mxCell id="rXSSHZ3YZbSXg_WViDfZ-155" value="" style="verticalLabelPosition=bottom;verticalAlign=top;html=1;shape=mxgraph.basic.rect;fillColor2=none;strokeWidth=1;size=20;indent=5;fillColor=#f5f5f5;strokeColor=#666666;fontColor=#333333;" parent="1" vertex="1">
          <mxGeometry x="131" y="324" width="414" height="401" as="geometry" />
        </mxCell>
        <mxCell id="rXSSHZ3YZbSXg_WViDfZ-123" value="" style="rounded=1;whiteSpace=wrap;html=1;" parent="1" vertex="1">
          <mxGeometry x="450.88" y="510" width="69" height="35" as="geometry" />
        </mxCell>
        <mxCell id="rXSSHZ3YZbSXg_WViDfZ-22" value="Microsoft SQL Server" style="text;html=1;align=center;verticalAlign=middle;whiteSpace=wrap;rounded=0;" parent="1" vertex="1">
          <mxGeometry x="376.17" y="678" width="80" height="30" as="geometry" />
        </mxCell>
        <mxCell id="rXSSHZ3YZbSXg_WViDfZ-115" style="edgeStyle=orthogonalEdgeStyle;rounded=0;orthogonalLoop=1;jettySize=auto;html=1;flowAnimation=1;entryX=0.294;entryY=0.998;entryDx=0;entryDy=0;entryPerimeter=0;" parent="1" target="rXSSHZ3YZbSXg_WViDfZ-25" edge="1">
          <mxGeometry relative="1" as="geometry">
            <mxPoint x="400.88" y="477" as="targetPoint" />
            <mxPoint x="400.88" y="591" as="sourcePoint" />
            <Array as="points" />
          </mxGeometry>
        </mxCell>
        <mxCell id="rXSSHZ3YZbSXg_WViDfZ-37" value="" style="verticalLabelPosition=bottom;html=1;verticalAlign=top;align=center;strokeColor=#000000;fillColor=#9999FF;shape=mxgraph.azure.sql_database;strokeWidth=2;fontColor=#ffffff;aspect=fixed;" parent="1" vertex="1">
          <mxGeometry x="391.38" y="595.5" width="49.58" height="70" as="geometry" />
        </mxCell>
        <mxCell id="rXSSHZ3YZbSXg_WViDfZ-41" value="Stores" style="text;html=1;align=center;verticalAlign=middle;whiteSpace=wrap;rounded=0;" parent="1" vertex="1">
          <mxGeometry x="455.38" y="512.5" width="60" height="30" as="geometry" />
        </mxCell>
        <mxCell id="rXSSHZ3YZbSXg_WViDfZ-56" value="" style="group" parent="1" vertex="1" connectable="0">
          <mxGeometry x="286" y="95" width="79" height="120" as="geometry" />
        </mxCell>
        <mxCell id="rXSSHZ3YZbSXg_WViDfZ-8" value="" style="sketch=0;html=1;aspect=fixed;strokeColor=#000000;shadow=0;fillColor=#CCFF99;verticalAlign=top;labelPosition=center;verticalLabelPosition=bottom;shape=mxgraph.gcp2.gear;strokeWidth=2;" parent="rXSSHZ3YZbSXg_WViDfZ-56" vertex="1">
          <mxGeometry x="9.5" width="60" height="60" as="geometry" />
        </mxCell>
        <mxCell id="rXSSHZ3YZbSXg_WViDfZ-23" value="Contentful CMS" style="text;html=1;align=center;verticalAlign=middle;whiteSpace=wrap;rounded=0;" parent="rXSSHZ3YZbSXg_WViDfZ-56" vertex="1">
          <mxGeometry x="9.5" y="69.5" width="60" height="27" as="geometry" />
        </mxCell>
        <mxCell id="rXSSHZ3YZbSXg_WViDfZ-57" value="" style="group;fillColor=none;strokeColor=none;" parent="1" vertex="1" connectable="0">
          <mxGeometry x="160" y="364" width="96.56" height="117" as="geometry" />
        </mxCell>
        <mxCell id="pLh8T3LeH3v91HTKPx4W-2" value="" style="aspect=fixed;sketch=0;html=1;dashed=0;whitespace=wrap;verticalLabelPosition=bottom;verticalAlign=top;fillColor=#CCFF99;strokeColor=#000000;points=[[0.005,0.63,0],[0.1,0.2,0],[0.9,0.2,0],[0.5,0,0],[0.995,0.63,0],[0.72,0.99,0],[0.5,1,0],[0.28,0.99,0]];shape=mxgraph.kubernetes.icon2;prIcon=api;strokeWidth=2;gradientColor=none;" parent="rXSSHZ3YZbSXg_WViDfZ-57" vertex="1">
          <mxGeometry x="6.699999999999999" y="-2" width="60" height="57.6" as="geometry" />
        </mxCell>
        <mxCell id="rXSSHZ3YZbSXg_WViDfZ-9" value="TaxSys Notifications API" style="text;html=1;align=center;verticalAlign=middle;whiteSpace=wrap;rounded=0;" parent="rXSSHZ3YZbSXg_WViDfZ-57" vertex="1">
          <mxGeometry x="-11.58" y="64.00230571941523" width="96.56" height="30.007694280584754" as="geometry" />
        </mxCell>
        <mxCell id="rXSSHZ3YZbSXg_WViDfZ-67" value="" style="group;strokeWidth=2;" parent="1" vertex="1" connectable="0">
          <mxGeometry x="41" y="94.5" width="80" height="120" as="geometry" />
        </mxCell>
        <mxCell id="rXSSHZ3YZbSXg_WViDfZ-60" value="ATC Employee" style="text;html=1;align=center;verticalAlign=middle;whiteSpace=wrap;rounded=0;" parent="rXSSHZ3YZbSXg_WViDfZ-67" vertex="1">
          <mxGeometry x="-23" y="72.5" width="60" height="30" as="geometry" />
        </mxCell>
        <mxCell id="rXSSHZ3YZbSXg_WViDfZ-63" value="" style="shadow=0;dashed=0;html=1;strokeColor=light-dark(#000000, #51afe7);fillColor=#66B2FF;labelPosition=center;verticalLabelPosition=bottom;verticalAlign=top;align=center;outlineConnect=0;shape=mxgraph.veeam.company_administrator;strokeWidth=2;fontColor=#ffffff;" parent="rXSSHZ3YZbSXg_WViDfZ-67" vertex="1">
          <mxGeometry x="-16" y="0.5" width="60" height="60" as="geometry" />
        </mxCell>
        <mxCell id="rXSSHZ3YZbSXg_WViDfZ-90" value="" style="group" parent="1" vertex="1" connectable="0">
          <mxGeometry x="800.4200000000001" y="405.00000000000006" width="80" height="105" as="geometry" />
        </mxCell>
        <mxCell id="rXSSHZ3YZbSXg_WViDfZ-17" value="" style="outlineConnect=0;dashed=0;verticalLabelPosition=bottom;verticalAlign=top;align=center;html=1;shape=mxgraph.aws3.android;fillColor=#FFB366;strokeColor=#000000;strokeWidth=2;gradientColor=none;aspect=fixed;" parent="rXSSHZ3YZbSXg_WViDfZ-90" vertex="1">
          <mxGeometry x="9.999999999999996" y="-6.380000000000001" width="60" height="66.75" as="geometry" />
        </mxCell>
        <mxCell id="rXSSHZ3YZbSXg_WViDfZ-33" value="React App" style="text;html=1;align=center;verticalAlign=middle;whiteSpace=wrap;rounded=0;" parent="rXSSHZ3YZbSXg_WViDfZ-90" vertex="1">
          <mxGeometry x="10.379999999999999" y="66" width="59.62" height="20" as="geometry" />
        </mxCell>
        <mxCell id="rXSSHZ3YZbSXg_WViDfZ-91" value="" style="group" parent="1" vertex="1" connectable="0">
          <mxGeometry x="783" y="595.5" width="105" height="110" as="geometry" />
        </mxCell>
        <mxCell id="rXSSHZ3YZbSXg_WViDfZ-38" value="" style="verticalLabelPosition=bottom;html=1;verticalAlign=top;align=center;strokeColor=#000000;fillColor=#808080;shape=mxgraph.azure.github_code;pointerEvents=1;strokeWidth=2;aspect=fixed;" parent="rXSSHZ3YZbSXg_WViDfZ-91" vertex="1">
          <mxGeometry x="27.42" y="9" width="60" height="60" as="geometry" />
        </mxCell>
        <mxCell id="rXSSHZ3YZbSXg_WViDfZ-51" value="GitHub" style="text;html=1;align=center;verticalAlign=middle;whiteSpace=wrap;rounded=0;" parent="rXSSHZ3YZbSXg_WViDfZ-91" vertex="1">
          <mxGeometry x="4.920000000000001" y="83" width="105" height="30" as="geometry" />
        </mxCell>
        <mxCell id="rXSSHZ3YZbSXg_WViDfZ-92" value="" style="group;aspect=fixed;" parent="1" vertex="1" connectable="0">
          <mxGeometry x="558" y="202.21000000000004" width="64.13000000000001" height="99.1" as="geometry" />
        </mxCell>
        <mxCell id="rXSSHZ3YZbSXg_WViDfZ-5" value="" style="points=[];aspect=fixed;html=1;align=center;shadow=0;dashed=0;fillColor=#FF99CC;strokeColor=#000000;shape=mxgraph.alibaba_cloud.apigateway;strokeWidth=2;fontColor=#ffffff;" parent="rXSSHZ3YZbSXg_WViDfZ-92" vertex="1">
          <mxGeometry x="0.04343629343629344" y="4.3638260869565215" width="60" height="57.91505791505792" as="geometry" />
        </mxCell>
        <mxCell id="rXSSHZ3YZbSXg_WViDfZ-24" value="Azure API Gateway" style="text;html=1;align=center;verticalAlign=middle;whiteSpace=wrap;rounded=0;" parent="rXSSHZ3YZbSXg_WViDfZ-92" vertex="1">
          <mxGeometry x="-4.1299999999999955" y="73.63999999999999" width="68.26" height="25.46" as="geometry" />
        </mxCell>
        <mxCell id="rXSSHZ3YZbSXg_WViDfZ-96" value="" style="group" parent="1" vertex="1" connectable="0">
          <mxGeometry x="382.88" y="330" width="80" height="145" as="geometry" />
        </mxCell>
        <mxCell id="rXSSHZ3YZbSXg_WViDfZ-25" value="Azure Function App" style="text;html=1;align=center;verticalAlign=middle;whiteSpace=wrap;rounded=0;" parent="rXSSHZ3YZbSXg_WViDfZ-96" vertex="1">
          <mxGeometry x="-4.38" y="101.99516741071429" width="78.5" height="38.839285714285715" as="geometry" />
        </mxCell>
        <mxCell id="rXSSHZ3YZbSXg_WViDfZ-40" value="" style="verticalLabelPosition=bottom;verticalAlign=top;html=1;shape=mxgraph.basic.flash;fillColor=#FFFF33;strokeColor=#36393d;strokeWidth=2;aspect=fixed;" parent="rXSSHZ3YZbSXg_WViDfZ-96" vertex="1">
          <mxGeometry x="14.12" y="31.00375" width="60" height="68.25" as="geometry" />
        </mxCell>
        <mxCell id="rXSSHZ3YZbSXg_WViDfZ-112" style="edgeStyle=orthogonalEdgeStyle;rounded=0;orthogonalLoop=1;jettySize=auto;html=1;endArrow=blockThin;endFill=1;flowAnimation=1;exitX=0.75;exitY=1;exitDx=0;exitDy=0;" parent="1" edge="1" source="rXSSHZ3YZbSXg_WViDfZ-25">
          <mxGeometry relative="1" as="geometry">
            <mxPoint x="436.88" y="471" as="sourcePoint" />
            <mxPoint x="437.09" y="588.71" as="targetPoint" />
            <Array as="points" />
          </mxGeometry>
        </mxCell>
        <mxCell id="rXSSHZ3YZbSXg_WViDfZ-117" value="" style="rounded=1;whiteSpace=wrap;html=1;" parent="1" vertex="1">
          <mxGeometry x="238.88" y="343" width="137" height="42" as="geometry" />
        </mxCell>
        <mxCell id="rXSSHZ3YZbSXg_WViDfZ-118" value="Polls every 30 mins" style="text;html=1;align=center;verticalAlign=middle;whiteSpace=wrap;rounded=0;" parent="1" vertex="1">
          <mxGeometry x="248.38" y="349" width="118.5" height="30" as="geometry" />
        </mxCell>
        <mxCell id="rXSSHZ3YZbSXg_WViDfZ-106" style="edgeStyle=orthogonalEdgeStyle;rounded=0;orthogonalLoop=1;jettySize=auto;html=1;flowAnimation=1;" parent="1" target="J6c1UXvjGDzlx57pnp78-20" edge="1">
          <mxGeometry relative="1" as="geometry">
            <mxPoint x="804" y="239" as="targetPoint" />
            <mxPoint x="624" y="238" as="sourcePoint" />
            <Array as="points">
              <mxPoint x="730" y="240" />
            </Array>
          </mxGeometry>
        </mxCell>
        <mxCell id="rXSSHZ3YZbSXg_WViDfZ-122" value="&lt;h1&gt;&lt;font face=&quot;Verdana&quot;&gt;ATC Website Notifications System&lt;/font&gt;&lt;/h1&gt;" style="text;html=1;align=left;verticalAlign=middle;whiteSpace=wrap;rounded=0;" parent="1" vertex="1">
          <mxGeometry x="374" y="-291" width="553" height="30" as="geometry" />
        </mxCell>
        <mxCell id="rXSSHZ3YZbSXg_WViDfZ-125" value="Fetches" style="rounded=1;whiteSpace=wrap;html=1;" parent="1" vertex="1">
          <mxGeometry x="313.88" y="510" width="69" height="35" as="geometry" />
        </mxCell>
        <mxCell id="rXSSHZ3YZbSXg_WViDfZ-127" value="Retrieves&amp;nbsp;&lt;div&gt;notifications&lt;/div&gt;" style="rounded=1;whiteSpace=wrap;html=1;" parent="1" vertex="1">
          <mxGeometry x="666" y="181" width="112" height="42" as="geometry" />
        </mxCell>
        <mxCell id="rXSSHZ3YZbSXg_WViDfZ-129" value="Exposes endpoint" style="rounded=1;whiteSpace=wrap;html=1;" parent="1" vertex="1">
          <mxGeometry x="421.38" y="69" width="128" height="42" as="geometry" />
        </mxCell>
        <mxCell id="rXSSHZ3YZbSXg_WViDfZ-130" value="Creates a notification" style="rounded=1;whiteSpace=wrap;html=1;" parent="1" vertex="1">
          <mxGeometry x="98" y="69" width="154.38" height="42" as="geometry" />
        </mxCell>
        <mxCell id="rXSSHZ3YZbSXg_WViDfZ-133" value="Source code &amp;amp;&lt;div&gt;CI/CD&lt;/div&gt;" style="rounded=1;whiteSpace=wrap;html=1;" parent="1" vertex="1">
          <mxGeometry x="666.12" y="576" width="111.88" height="42" as="geometry" />
        </mxCell>
        <mxCell id="rXSSHZ3YZbSXg_WViDfZ-142" style="edgeStyle=orthogonalEdgeStyle;rounded=0;orthogonalLoop=1;jettySize=auto;html=1;flowAnimation=1;" parent="1" target="rXSSHZ3YZbSXg_WViDfZ-24" edge="1">
          <mxGeometry relative="1" as="geometry">
            <mxPoint x="455.88" y="393" as="sourcePoint" />
          </mxGeometry>
        </mxCell>
        <mxCell id="rXSSHZ3YZbSXg_WViDfZ-138" style="edgeStyle=orthogonalEdgeStyle;rounded=0;orthogonalLoop=1;jettySize=auto;html=1;flowAnimation=1;entryX=0.5;entryY=0;entryDx=0;entryDy=0;entryPerimeter=0;fillColor=#d5e8d4;strokeColor=#FFB366;" parent="1" source="rXSSHZ3YZbSXg_WViDfZ-33" target="rXSSHZ3YZbSXg_WViDfZ-38" edge="1">
          <mxGeometry relative="1" as="geometry">
            <mxPoint x="838.5300000000003" y="771.9532294640173" as="targetPoint" />
          </mxGeometry>
        </mxCell>
        <mxCell id="rXSSHZ3YZbSXg_WViDfZ-144" style="edgeStyle=orthogonalEdgeStyle;rounded=0;orthogonalLoop=1;jettySize=auto;html=1;flowAnimation=1;" parent="1" edge="1">
          <mxGeometry relative="1" as="geometry">
            <mxPoint x="230.50000000000006" y="395.0000000000001" as="sourcePoint" />
            <mxPoint x="393" y="395" as="targetPoint" />
            <Array as="points">
              <mxPoint x="266.82" y="395" />
              <mxPoint x="266.82" y="395" />
            </Array>
          </mxGeometry>
        </mxCell>
        <mxCell id="J6c1UXvjGDzlx57pnp78-1" style="edgeStyle=orthogonalEdgeStyle;rounded=0;orthogonalLoop=1;jettySize=auto;html=1;entryX=0.026;entryY=0.547;entryDx=0;entryDy=0;entryPerimeter=0;flowAnimation=1;" edge="1" parent="1" source="rXSSHZ3YZbSXg_WViDfZ-65" target="pLh8T3LeH3v91HTKPx4W-2">
          <mxGeometry relative="1" as="geometry">
            <Array as="points">
              <mxPoint x="126" y="393" />
            </Array>
          </mxGeometry>
        </mxCell>
        <mxCell id="J6c1UXvjGDzlx57pnp78-5" style="edgeStyle=orthogonalEdgeStyle;rounded=0;orthogonalLoop=1;jettySize=auto;html=1;entryX=0;entryY=0.5;entryDx=0;entryDy=0;entryPerimeter=0;flowAnimation=1;" edge="1" parent="1" source="rXSSHZ3YZbSXg_WViDfZ-17" target="rXSSHZ3YZbSXg_WViDfZ-6">
          <mxGeometry relative="1" as="geometry">
            <mxPoint x="1048.5535823277066" y="241.99500000000012" as="targetPoint" />
            <Array as="points">
              <mxPoint x="991" y="435" />
              <mxPoint x="991" y="242" />
              <mxPoint x="1089" y="242" />
            </Array>
          </mxGeometry>
        </mxCell>
        <mxCell id="J6c1UXvjGDzlx57pnp78-8" style="edgeStyle=orthogonalEdgeStyle;rounded=0;orthogonalLoop=1;jettySize=auto;html=1;entryX=0.017;entryY=0.449;entryDx=0;entryDy=0;entryPerimeter=0;flowAnimation=1;strokeColor=#FFB366;" edge="1" parent="1" target="rXSSHZ3YZbSXg_WViDfZ-38">
          <mxGeometry relative="1" as="geometry">
            <mxPoint x="458.0000000000001" y="407.9968627450981" as="sourcePoint" />
            <mxPoint x="811.4200000000001" y="621.84" as="targetPoint" />
            <Array as="points">
              <mxPoint x="589" y="408" />
              <mxPoint x="589" y="631" />
              <mxPoint x="811" y="631" />
            </Array>
          </mxGeometry>
        </mxCell>
        <mxCell id="J6c1UXvjGDzlx57pnp78-13" style="rounded=0;orthogonalLoop=1;jettySize=auto;html=1;entryX=0.5;entryY=0;entryDx=0;entryDy=0;entryPerimeter=0;endArrow=classicThin;endFill=1;flowAnimation=1;" edge="1" parent="1" source="rXSSHZ3YZbSXg_WViDfZ-159" target="rXSSHZ3YZbSXg_WViDfZ-17">
          <mxGeometry relative="1" as="geometry" />
        </mxCell>
        <mxCell id="rXSSHZ3YZbSXg_WViDfZ-159" value="React Context Provider" style="text;html=1;align=center;verticalAlign=middle;whiteSpace=wrap;rounded=0;" parent="1" vertex="1">
          <mxGeometry x="798.73" y="280.9968421052631" width="81.69999999999996" height="31.26315789473684" as="geometry" />
        </mxCell>
        <mxCell id="J6c1UXvjGDzlx57pnp78-20" value="" style="shadow=0;dashed=0;html=1;strokeColor=default;fillColor=#FFB366;labelPosition=center;verticalLabelPosition=bottom;verticalAlign=top;align=center;outlineConnect=0;shape=mxgraph.veeam.script;aspect=fixed;strokeWidth=2;" vertex="1" parent="1">
          <mxGeometry x="810.42" y="212" width="60" height="60" as="geometry" />
        </mxCell>
        <mxCell id="rXSSHZ3YZbSXg_WViDfZ-6" value="" style="verticalLabelPosition=bottom;html=1;verticalAlign=top;align=center;shape=mxgraph.azure.azure_website;pointerEvents=1;fillColor=#66B2FF;strokeColor=#000000;strokeWidth=2;aspect=fixed;" parent="1" vertex="1">
          <mxGeometry x="1090" y="212.15999999999997" width="60" height="59.71" as="geometry" />
        </mxCell>
        <mxCell id="rXSSHZ3YZbSXg_WViDfZ-50" value="ATC Website" style="text;html=1;align=center;verticalAlign=middle;whiteSpace=wrap;rounded=0;" parent="1" vertex="1">
          <mxGeometry x="1069.42" y="278.9990476190476" width="100" height="29.857142857142858" as="geometry" />
        </mxCell>
        <mxCell id="J6c1UXvjGDzlx57pnp78-23" value="Merges ATC &amp;amp; TaxSys Notifications" style="rounded=1;whiteSpace=wrap;html=1;" vertex="1" parent="1">
          <mxGeometry x="666" y="334" width="148" height="42" as="geometry" />
        </mxCell>
        <mxCell id="J6c1UXvjGDzlx57pnp78-25" value="" style="html=1;dashed=0;aspect=fixed;verticalLabelPosition=bottom;verticalAlign=top;align=center;shape=mxgraph.gmdl.star;strokeColor=default;fillColor=#FFFF33;shadow=0;sketch=0;strokeWidth=1;" vertex="1" parent="1">
          <mxGeometry x="659" y="325.5" width="20" height="20" as="geometry" />
        </mxCell>
        <mxCell id="J6c1UXvjGDzlx57pnp78-26" value="Delivers real-time updates" style="rounded=1;whiteSpace=wrap;html=1;" vertex="1" parent="1">
          <mxGeometry x="907" y="448" width="117" height="46" as="geometry" />
        </mxCell>
        <mxCell id="J6c1UXvjGDzlx57pnp78-27" value="Dismissal and local storage" style="rounded=1;whiteSpace=wrap;html=1;" vertex="1" parent="1">
          <mxGeometry x="859" y="334" width="121" height="42" as="geometry" />
        </mxCell>
        <mxCell id="J6c1UXvjGDzlx57pnp78-28" style="edgeStyle=orthogonalEdgeStyle;rounded=0;orthogonalLoop=1;jettySize=auto;html=1;flowAnimation=1;" edge="1" parent="1" source="rXSSHZ3YZbSXg_WViDfZ-63" target="rXSSHZ3YZbSXg_WViDfZ-8">
          <mxGeometry relative="1" as="geometry" />
        </mxCell>
        <mxCell id="J6c1UXvjGDzlx57pnp78-29" style="edgeStyle=orthogonalEdgeStyle;rounded=0;orthogonalLoop=1;jettySize=auto;html=1;entryX=0.523;entryY=0.033;entryDx=0;entryDy=0;entryPerimeter=0;flowAnimation=1;" edge="1" parent="1" source="rXSSHZ3YZbSXg_WViDfZ-8" target="rXSSHZ3YZbSXg_WViDfZ-5">
          <mxGeometry relative="1" as="geometry" />
        </mxCell>
        <mxCell id="rXSSHZ3YZbSXg_WViDfZ-65" value="" style="shadow=0;dashed=0;html=1;strokeColor=light-dark(#000000, #51afe7);fillColor=#66B2FF;labelPosition=center;verticalLabelPosition=bottom;verticalAlign=top;align=center;outlineConnect=0;shape=mxgraph.veeam.company_administrator;strokeWidth=2;fontColor=#ffffff;" parent="1" vertex="1">
          <mxGeometry x="23.5" y="359.25" width="60" height="60" as="geometry" />
        </mxCell>
        <mxCell id="rXSSHZ3YZbSXg_WViDfZ-61" value="Grand Street Group" style="text;html=1;align=center;verticalAlign=middle;whiteSpace=wrap;rounded=0;" parent="1" vertex="1">
          <mxGeometry x="9" y="427.75" width="89" height="30" as="geometry" />
        </mxCell>
      </root>
    </mxGraphModel>
  </diagram>
</mxfile>
